# xmcd
#
# Track frame offsets:
#  150
#  12707
#  25103
#  38240
#  49839
#  63158
#  75351
#  87795
#  98812
#  109815
#
# Disc length: 1621 seconds
#
# Revision: 0
# Processed by: cddbd v1.5.1PL2 Copyright (c) Steve Scherf et al.
# Submitted via: Collectorz.com_Music_Collector 6.9
#
DISCID=7106530a
DTITLE=Hank Williams SR - Country Classics
DYEAR=1900
DGENRE=Country
TTITLE0=LovesickBlues
TTITLE1=Your Cheatin Heart
TTITLE2=Jambalaya (On the Bayou)
TTITLE3=Kaw-liga
TTITLE4=Hey,Good Lookin
TTITLE5=Take These Chains From My Heart
TTITLE6=Cold Cold Heart
TTITLE7=I Can't Help If I'm Still in Love With You
TTITLE8=I'll Never Get Out of this World Alive
TTITLE9=Settin, the Woods on Fire
EXTD=
EXTT0=
EXTT1=
EXTT2=
EXTT3=
EXTT4=
EXTT5=
EXTT6=
EXTT7=
EXTT8=
EXTT9=
PLAYORDER=
